# xmcd
#
# Track frame offsets: 
#        150
#        31033
#        50222
#        65310
#        106558
#        130679
#        146366
#        196100
#        214633
#
# Disc length: 2989 seconds
#
# Revision: 0
# Processed by: cddbd v1.5.2PL0 Copyright (c) Steve Scherf et al.
# Submitted via: ExactAudioCopy v0.95b4
#
DISCID=710bab09
DTITLE=Bloomfield, Kooper, Stills - Super Session (Live At The Fillmor
DTITLE=e East)
DYEAR=1968
DGENRE=Blues Rock
TTITLE0=Albert's Shuffle (Live)
TTITLE1=Stop (Live)
TTITLE2=Man's Temptation (Live)
TTITLE3=His Holy Modal Majesty (Live)
TTITLE4=Really (Live)
TTITLE5=It Takes A Lot To Laugh, It Takes A Train To Cry (Live)
TTITLE6=Season Of The Witch (Live)
TTITLE7=You Don't Love Me (Live)
TTITLE8=Harvey's Tune (Live)
EXTD=
EXTT0=
EXTT1=
EXTT2=
EXTT3=
EXTT4=
EXTT5=
EXTT6=
EXTT7=
EXTT8=
PLAYORDER=
